<svg width="100" height="100" viewBox="0 0 100 100" fill="none" xmlns="http://www.w3.org/2000/svg">
<g clip-path="url(#clip0_205_16)">
<g clip-path="url(#clip1_205_16)">
<rect x="0.5" y="0.5" width="100" height="100" rx="10" fill="#7E22CE"/>
<path d="M29.1646 67.8354C27.0861 65.4021 25.4761 62.6767 24.3344 59.6594C23.1948 56.6441 22.625 53.4382 22.625 50.0417C22.625 42.4375 25.2865 35.974 30.6094 30.651C35.9323 25.3281 42.3958 22.6667 50 22.6667H50.6083L45.7417 17.8L50 13.5417L62.1667 25.7083L50 37.875L45.6656 33.5406L50.4562 28.75H50C44.1194 28.75 39.1007 30.8285 34.9438 34.9854C30.7868 39.1424 28.7083 44.1611 28.7083 50.0417C28.7083 52.6271 29.1261 55.0604 29.9615 57.3417C30.799 59.6229 31.9781 61.676 33.499 63.501L29.1646 67.8354ZM46.9583 66.7708C46.9583 65.6049 46.566 64.4521 45.7812 63.3125C44.9944 62.1708 44.1194 60.9795 43.1563 59.7385C42.1931 58.4955 41.3181 57.2017 40.5313 55.8573C39.7465 54.5149 39.3542 53.0833 39.3542 51.5625C39.3542 48.6222 40.3934 46.1128 42.4719 44.0344C44.5503 41.9559 47.0597 40.9167 50 40.9167C52.9403 40.9167 55.4497 41.9559 57.5281 44.0344C59.6066 46.1128 60.6458 48.6222 60.6458 51.5625C60.6458 53.0833 60.2535 54.5149 59.4687 55.8573C58.6819 57.2017 57.8069 58.4955 56.8438 59.7385C55.8806 60.9795 55.0056 62.1708 54.2188 63.3125C53.434 64.4521 53.0417 65.6049 53.0417 66.7708H46.9583ZM46.9583 74.375V69.8125H53.0417V74.375H46.9583ZM70.8354 67.8354L66.501 63.501C68.0219 61.676 69.2 59.6229 70.0355 57.3417C70.8729 55.0604 71.2917 52.6271 71.2917 50.0417C71.2917 46.6958 70.5941 43.5913 69.199 40.7281C67.8059 37.8628 65.8927 35.467 63.4594 33.5406L67.7938 29.2062C70.734 31.741 73.066 34.7948 74.7896 38.3677C76.5132 41.9427 77.375 45.834 77.375 50.0417C77.375 53.4382 76.8052 56.6441 75.6656 59.6594C74.5239 62.6767 72.9139 65.4021 70.8354 67.8354Z" fill="white"/>
</g>
<path d="M80.825 84L82.3 82.525C82.5 82.325 82.6 82.0917 82.6 81.825C82.6 81.5583 82.5 81.325 82.3 81.125C82.1 80.925 81.8627 80.825 81.588 80.825C81.3127 80.825 81.075 80.925 80.875 81.125L78.7 83.3C78.6 83.4 78.5293 83.5083 78.488 83.625C78.446 83.7417 78.425 83.8667 78.425 84C78.425 84.1333 78.446 84.2583 78.488 84.375C78.5293 84.4917 78.6 84.6 78.7 84.7L80.875 86.875C81.075 87.075 81.3127 87.175 81.588 87.175C81.8627 87.175 82.1 87.075 82.3 86.875C82.5 86.675 82.6 86.4417 82.6 86.175C82.6 85.9083 82.5 85.675 82.3 85.475L80.825 84ZM87.175 84L85.7 85.475C85.5 85.675 85.4 85.9083 85.4 86.175C85.4 86.4417 85.5 86.675 85.7 86.875C85.9 87.075 86.1377 87.175 86.413 87.175C86.6877 87.175 86.925 87.075 87.125 86.875L89.3 84.7C89.4 84.6 89.4707 84.4917 89.512 84.375C89.554 84.2583 89.575 84.1333 89.575 84C89.575 83.8667 89.554 83.7417 89.512 83.625C89.4707 83.5083 89.4 83.4 89.3 83.3L87.125 81.125C87.025 81.025 86.9127 80.95 86.788 80.9C86.6627 80.85 86.5377 80.825 86.413 80.825C86.2877 80.825 86.1627 80.85 86.038 80.9C85.9127 80.95 85.8 81.025 85.7 81.125C85.5 81.325 85.4 81.5583 85.4 81.825C85.4 82.0917 85.5 82.325 85.7 82.525L87.175 84ZM77 93C76.45 93 75.979 92.8043 75.587 92.413C75.1957 92.021 75 91.55 75 91V77C75 76.45 75.1957 75.979 75.587 75.587C75.979 75.1957 76.45 75 77 75H91C91.55 75 92.021 75.1957 92.413 75.587C92.8043 75.979 93 76.45 93 77V91C93 91.55 92.8043 92.021 92.413 92.413C92.021 92.8043 91.55 93 91 93H77Z" fill="#F5D0FE"/>
</g>
<defs>
<clipPath id="clip0_205_16">
<rect width="100" height="100" fill="white"/>
</clipPath>
<clipPath id="clip1_205_16">
<rect width="100" height="100" fill="white"/>
</clipPath>
</defs>
</svg>
