<svg width="100" height="100" viewBox="0 0 100 100" fill="none" xmlns="http://www.w3.org/2000/svg">
<g clip-path="url(#clip0_103_21)">
<g clip-path="url(#clip1_103_21)">
<rect x="0.5" y="0.5" width="100" height="100" rx="10" fill="#6F13EB"/>
<path d="M29.1646 67.8355C27.0861 65.4022 25.4761 62.6768 24.3344 59.6595C23.1948 56.6442 22.625 53.4383 22.625 50.0417C22.625 42.4376 25.2865 35.974 30.6094 30.6511C35.9323 25.3282 42.3958 22.6667 50 22.6667H50.6083L45.7417 17.8001L50 13.5417L62.1667 25.7084L50 37.8751L45.6656 33.5407L50.4562 28.7501H50C44.1194 28.7501 39.1007 30.8286 34.9438 34.9855C30.7868 39.1424 28.7083 44.1612 28.7083 50.0417C28.7083 52.6272 29.1261 55.0605 29.9615 57.3417C30.799 59.623 31.9781 61.6761 33.499 63.5011L29.1646 67.8355ZM46.9583 66.7709C46.9583 65.6049 46.566 64.4521 45.7812 63.3125C44.9944 62.1709 44.1194 60.9796 43.1563 59.7386C42.1931 58.4955 41.3181 57.2018 40.5313 55.8574C39.7465 54.515 39.3542 53.0834 39.3542 51.5626C39.3542 48.6223 40.3934 46.1129 42.4719 44.0345C44.5503 41.956 47.0597 40.9167 50 40.9167C52.9403 40.9167 55.4497 41.956 57.5281 44.0345C59.6066 46.1129 60.6458 48.6223 60.6458 51.5626C60.6458 53.0834 60.2535 54.515 59.4687 55.8574C58.6819 57.2018 57.8069 58.4955 56.8438 59.7386C55.8806 60.9796 55.0056 62.1709 54.2188 63.3125C53.434 64.4521 53.0417 65.6049 53.0417 66.7709H46.9583ZM46.9583 74.3751V69.8126H53.0417V74.3751H46.9583ZM70.8354 67.8355L66.501 63.5011C68.0219 61.6761 69.2 59.623 70.0355 57.3417C70.8729 55.0605 71.2917 52.6272 71.2917 50.0417C71.2917 46.6959 70.5941 43.5914 69.199 40.7282C67.8059 37.8629 65.8927 35.4671 63.4594 33.5407L67.7938 29.2063C70.734 31.7411 73.066 34.7949 74.7896 38.3678C76.5132 41.9428 77.375 45.8341 77.375 50.0417C77.375 53.4383 76.8052 56.6442 75.6656 59.6595C74.5239 62.6768 72.9139 65.4022 70.8354 67.8355Z" fill="white"/>
</g>
<path d="M80.825 84L82.3 82.525C82.5 82.325 82.6 82.0917 82.6 81.825C82.6 81.5583 82.5 81.325 82.3 81.125C82.1 80.925 81.8627 80.825 81.588 80.825C81.3127 80.825 81.075 80.925 80.875 81.125L78.7 83.3C78.6 83.4 78.5293 83.5083 78.488 83.625C78.446 83.7417 78.425 83.8667 78.425 84C78.425 84.1333 78.446 84.2583 78.488 84.375C78.5293 84.4917 78.6 84.6 78.7 84.7L80.875 86.875C81.075 87.075 81.3127 87.175 81.588 87.175C81.8627 87.175 82.1 87.075 82.3 86.875C82.5 86.675 82.6 86.4417 82.6 86.175C82.6 85.9083 82.5 85.675 82.3 85.475L80.825 84ZM87.175 84L85.7 85.475C85.5 85.675 85.4 85.9083 85.4 86.175C85.4 86.4417 85.5 86.675 85.7 86.875C85.9 87.075 86.1377 87.175 86.413 87.175C86.6877 87.175 86.925 87.075 87.125 86.875L89.3 84.7C89.4 84.6 89.4707 84.4917 89.512 84.375C89.554 84.2583 89.575 84.1333 89.575 84C89.575 83.8667 89.554 83.7417 89.512 83.625C89.4707 83.5083 89.4 83.4 89.3 83.3L87.125 81.125C87.025 81.025 86.9127 80.95 86.788 80.9C86.6627 80.85 86.5377 80.825 86.413 80.825C86.2877 80.825 86.1627 80.85 86.038 80.9C85.9127 80.95 85.8 81.025 85.7 81.125C85.5 81.325 85.4 81.5583 85.4 81.825C85.4 82.0917 85.5 82.325 85.7 82.525L87.175 84ZM77 93C76.45 93 75.979 92.8043 75.587 92.413C75.1957 92.021 75 91.55 75 91V77C75 76.45 75.1957 75.979 75.587 75.587C75.979 75.1957 76.45 75 77 75H91C91.55 75 92.021 75.1957 92.413 75.587C92.8043 75.979 93 76.45 93 77V91C93 91.55 92.8043 92.021 92.413 92.413C92.021 92.8043 91.55 93 91 93H77Z" fill="#2D085E"/>
</g>
<defs>
<clipPath id="clip0_103_21">
<rect width="100" height="100" fill="white"/>
</clipPath>
<clipPath id="clip1_103_21">
<rect width="100" height="100" fill="white"/>
</clipPath>
</defs>
</svg>
